<svg width="209" height="57" viewBox="0 0 209 57" fill="none" xmlns="http://www.w3.org/2000/svg">
<g clip-path="url(#clip0_825_6325)">
<path d="M29.2895 18.0311C27.7827 17.122 26.0654 16.6758 24.1545 16.6758C21.3682 16.6758 19.0532 17.686 17.2097 19.6979C15.4335 17.686 13.3206 16.6758 10.871 16.6758C8.79171 16.6758 7.01552 17.4503 5.53395 18.9908V17.3829H0.5V39.6822H5.53395V28.5452C5.53395 26.0955 5.82016 24.3699 6.39259 23.3597C6.72931 22.7199 7.25964 22.2233 7.97517 21.8529C8.69911 21.4825 9.47357 21.2973 10.3154 21.2973C12.0242 21.2973 13.2027 21.9034 13.8425 23.1072C14.3812 24.151 14.6506 25.7925 14.6506 28.0401V39.6653H19.6846V28.5452C19.6846 26.0955 19.954 24.3699 20.4927 23.3597C20.8294 22.7199 21.3598 22.2233 22.0753 21.8529C22.7992 21.4825 23.5737 21.2973 24.4155 21.2973C26.0907 21.2973 27.2523 21.9034 27.8837 23.1072C28.4224 24.151 28.6918 25.7925 28.6918 28.0401V39.6653H33.7258V27.636C33.7258 24.8834 33.288 22.7368 32.421 21.1963C31.6718 19.8578 30.628 18.7972 29.2895 18.0311Z" fill="white"/>
<path d="M58.4667 37.351C61.0173 35.036 62.2884 32.0813 62.2884 28.4953C62.2884 25.4059 61.2951 22.7542 59.3169 20.5403C57.0356 17.956 54.1146 16.668 50.5622 16.668C47.5065 16.668 44.8716 17.6782 42.6577 19.6901C40.1071 22.005 38.8359 24.9429 38.8359 28.4953C38.8359 31.5847 39.8293 34.2532 41.8075 36.5008C44.1224 39.0851 47.0435 40.373 50.5622 40.373C53.6516 40.373 56.2864 39.3713 58.4667 37.351ZM43.9204 28.4953C43.9204 26.4834 44.4591 24.8166 45.5282 23.5118C46.7657 21.9713 48.4493 21.1969 50.5622 21.1969C52.4057 21.1969 53.9378 21.803 55.1416 23.0067C56.5474 24.3536 57.2545 26.1803 57.2545 28.4953C57.2545 30.5072 56.6989 32.1823 55.5961 33.5292C54.3503 35.036 52.6751 35.7937 50.5622 35.7937C48.7523 35.7937 47.2202 35.2044 45.9828 34.0343C44.6107 32.6537 43.9204 30.8102 43.9204 28.4953Z" fill="white"/>
<path d="M77.7946 16.668C74.7473 16.668 72.1125 17.6782 69.8986 19.6901C67.3479 22.005 66.0684 24.9429 66.0684 28.4953C66.0684 31.5847 67.0617 34.2532 69.0399 36.5008C71.3549 39.0851 74.2759 40.373 77.7946 40.373C80.884 40.373 83.5189 39.3629 85.6991 37.351C88.2498 35.036 89.5209 32.0897 89.5209 28.4953C89.5209 25.4059 88.536 22.7542 86.5577 20.5403C84.2765 17.956 81.3554 16.668 77.7946 16.668Z" fill="white"/>
<path d="M109.9 18.0311C108.393 17.122 106.743 16.6758 104.967 16.6758C102.82 16.6758 100.943 17.4503 99.3269 18.9908V17.3829H94.293V39.6822H99.3269V28.4947C99.3269 26.1461 99.5963 24.4709 100.135 23.4607C100.539 22.821 101.128 22.3075 101.92 21.9034C102.711 21.4993 103.57 21.2973 104.512 21.2973C106.423 21.2973 107.736 21.9539 108.435 23.2587C108.974 24.2352 109.243 25.8262 109.243 28.0401V39.6653H114.277V27.636C114.277 24.7823 113.823 22.5852 112.922 21.0448C112.215 19.8073 111.213 18.7972 109.9 18.0311Z" fill="white"/>
<path d="M136.678 19.286C134.632 17.5435 132.418 16.668 130.036 16.668C127.081 16.668 124.497 17.6782 122.283 19.6901C119.766 22.0387 118.512 24.9765 118.512 28.4953C118.512 31.551 119.505 34.2027 121.483 36.4503C123.765 39.0682 126.618 40.373 130.036 40.373C132.486 40.373 134.699 39.4976 136.678 37.755V40.1205C136.678 42.3008 136.139 44.0264 135.07 45.306C133.866 46.8128 132.065 47.5704 129.682 47.5704C128.243 47.5704 127.048 47.3179 126.113 46.8128C125.17 46.3077 124.118 45.3817 122.94 44.0433C122.839 43.9086 122.637 43.6729 122.333 43.3362L119.059 46.6108C120.035 47.7219 120.717 48.4711 121.121 48.8752C123.47 51.0218 126.357 52.0993 129.775 52.0993C133.1 52.0993 135.827 51.1228 137.974 49.1782C140.457 46.9643 141.703 43.9423 141.703 40.1205V17.3751H136.669V19.286H136.678ZM135.12 33.5292C133.917 35.036 132.267 35.7937 130.187 35.7937C128.378 35.7937 126.862 35.2044 125.659 34.0343C124.286 32.6622 123.596 30.8102 123.596 28.4953C123.596 26.4834 124.135 24.8166 125.204 23.5118C126.441 21.9713 128.125 21.1969 130.238 21.1969C132.014 21.1969 133.496 21.803 134.666 23.0067C136.038 24.3536 136.728 26.1803 136.728 28.4953C136.728 30.5072 136.189 32.1908 135.12 33.5292Z" fill="white"/>
<path d="M164.104 19.286C161.822 17.5435 159.54 16.668 157.259 16.668C154.371 16.668 151.854 17.695 149.708 19.7406C147.191 22.1229 145.938 25.0439 145.938 28.4953C145.938 31.4836 146.913 34.1185 148.858 36.3997C151.139 39.0514 153.943 40.373 157.268 40.373C159.583 40.373 161.863 39.4976 164.111 37.755V39.6659H169.145V17.3751H164.111V19.286H164.104ZM162.596 33.5292C161.35 35.036 159.708 35.7937 157.663 35.7937C155.819 35.7937 154.287 35.2044 153.083 34.0343C151.711 32.6622 151.021 30.8102 151.021 28.4953C151.021 26.4834 151.561 24.8166 152.63 23.5118C153.867 21.9713 155.55 21.1969 157.663 21.1969C159.473 21.1969 160.971 21.803 162.141 23.0067C163.513 24.3536 164.204 26.1803 164.204 28.4953C164.204 30.5072 163.673 32.1908 162.596 33.5292Z" fill="white"/>
<path d="M180.114 32.6195V21.9034H183.633V17.3746H180.114V10.4297L175.131 12.3911V17.3746H172.715V21.9034H175.131V32.6195C175.131 34.8335 175.569 36.576 176.436 37.8555C177.446 39.3287 178.936 40.0694 180.914 40.0694C181.857 40.0694 182.875 39.9011 183.987 39.5644V34.884C182.909 35.187 182.126 35.3385 181.621 35.3385C180.611 35.3385 180.114 34.4378 180.114 32.6195Z" fill="white"/>
<path d="M208.5 28.9998C208.5 25.6746 207.591 22.8799 205.781 20.5986C203.702 17.9806 200.966 16.6758 197.582 16.6758C194.694 16.6758 192.194 17.686 190.081 19.6979C187.665 22.0128 186.453 24.9507 186.453 28.5031C186.453 31.6598 187.413 34.3452 189.324 36.5591C191.538 39.1097 194.391 40.3809 197.876 40.3809C202.304 40.3809 205.781 38.2679 208.298 34.0421L203.971 32.2323C203.904 32.3333 203.836 32.4343 203.769 32.5353C202.422 34.7156 200.461 35.8099 197.876 35.8099C196.37 35.8099 195.073 35.4058 194.004 34.5977C192.792 33.6549 192.009 32.2828 191.639 30.4729H208.5C208.5 29.7237 208.5 29.2355 208.5 28.9998ZM191.639 26.5838C191.942 24.976 192.581 23.6964 193.549 22.762C194.619 21.6845 195.982 21.1542 197.624 21.1542C200.646 21.1542 202.607 22.9641 203.508 26.5922H191.639V26.5838Z" fill="white"/>
<path d="M28.5489 12.4418C29.0961 12.8795 29.8874 12.7953 30.3251 12.2482C35.2917 6.06936 42.6743 2.52539 50.5872 2.52539C58.9715 2.52539 66.8844 6.60811 71.7584 13.4519C72.0026 13.7971 72.3898 13.9823 72.7854 13.9823C73.038 13.9823 73.2989 13.9065 73.5178 13.7466C74.0818 13.3425 74.2165 12.5512 73.8124 11.9872C68.4754 4.47836 59.7881 0 50.5872 0C41.9083 0 33.8018 3.88911 28.3553 10.6656C27.9176 11.2127 28.0102 12.004 28.5489 12.4418Z" fill="white"/>
<path d="M73.5512 43.2017C72.9787 42.7976 72.1959 42.9323 71.7918 43.5047C66.9178 50.3654 58.9965 54.4649 50.5869 54.4649C49.8882 54.4649 49.3242 55.0289 49.3242 55.7276C49.3242 56.4263 49.8882 56.9903 50.5869 56.9903C59.813 56.9903 68.5004 52.4951 73.8458 44.961C74.2499 44.3886 74.1152 43.6057 73.5512 43.2017Z" fill="white"/>
</g>
<defs>
<clipPath id="clip0_825_6325">
<rect width="208" height="57" fill="white" transform="translate(0.5)"/>
</clipPath>
</defs>
</svg>
