<svg width="564" height="102" viewBox="0 0 564 102" fill="none" xmlns="http://www.w3.org/2000/svg">
<g filter="url(#filter0_d_816_556)">
<g filter="url(#filter1_d_816_556)">
<path d="M110.509 9.26585H119.756L140.635 58.0771H140.825L161.799 9.26585H171.046V76H162.276V27.2841H162.085L143.971 68.4686H137.489L119.47 27.2841H119.28V76H110.509V9.26585ZM183.931 66.8479V37.6755L193.084 28.5234H218.443L227.499 37.6755V66.8479L218.443 76H193.084L183.931 66.8479ZM214.343 68.2779L218.633 64.0832V40.4402L214.343 36.2455H197.088L192.798 40.4402V64.0832L197.088 68.2779H214.343ZM238.954 66.8479V37.6755L248.106 28.5234H273.465L282.521 37.6755V66.8479L273.465 76H248.106L238.954 66.8479ZM269.365 68.2779L273.655 64.0832V40.4402L269.365 36.2455H252.11L247.82 40.4402V64.0832L252.11 68.2779H269.365ZM294.929 28.5234H303.414V37.8662L312.757 28.5234H327.629L336.972 37.8662V76H328.105V40.5356L323.815 36.2455H314.759L303.795 47.209V76H294.929V28.5234ZM349.381 65.3225V19.9433L360.059 9.26585H390.566L400.862 19.562V27.0934H391.71V22.8034L386.181 17.274H364.444L358.534 23.1847V62.0812L364.444 67.9919H385.99L391.805 62.1765V48.4483H377.028V40.4402H400.862V65.3225L390.185 76H360.059L349.381 65.3225ZM411.364 67.8966V56.1704L419.467 48.067H444.445V40.0589L440.25 35.9595H424.711L420.611 40.0589V43.5863H411.745V37.7709L420.993 28.5234H443.968L453.216 37.7709V76H444.921V68.1826L436.723 76H419.467L411.364 67.8966ZM435.483 68.6592L444.445 60.0791V55.1217H423.567L420.23 58.4585V65.4179L423.567 68.6592H435.483ZM469.406 66.9432V36.1502H460.826V28.5234H469.597V13.0792H478.272V28.5234H493.049V36.2455H478.272V64.0832L482.562 68.2779H493.049V76H478.558L469.406 66.9432ZM500.751 66.9432V37.6755L509.903 28.5234H534.785L543.938 37.6755V55.0264H509.617V64.1785L513.812 68.3732H530.877L535.071 64.2739V61.0325H543.842V66.9432L534.881 76H509.808L500.751 66.9432ZM535.071 48.067V40.3449L530.781 36.1502H513.907L509.617 40.3449V48.067H535.071Z" fill="white"/>
</g>
<path d="M40.1449 40.1504C36.0377 40.1504 32.6958 43.5249 32.6958 47.6724C32.6958 51.8198 36.0377 55.1944 40.1449 55.1944C44.2522 55.1944 47.5941 51.8198 47.5941 47.6724C47.5941 43.5249 44.2522 40.1504 40.1449 40.1504ZM40.1449 51.0288C38.3123 51.0288 36.821 49.5229 36.821 47.6724C36.821 45.8218 38.3123 44.316 40.1449 44.316C41.9776 44.316 43.4688 45.8218 43.4688 47.6724C43.4688 49.5229 41.9776 51.0288 40.1449 51.0288Z" fill="white"/>
<path d="M66.3999 48.7664C65.1116 47.3966 63.7659 46.0432 62.4094 44.7333C63.5557 44.5718 64.6912 44.189 65.7531 43.5703C70.1873 40.985 71.7109 35.241 69.1506 30.7634C67.9109 28.5953 65.9094 27.0441 63.5126 26.3946C61.1176 25.7469 58.6148 26.0789 56.4677 27.3308C55.4202 27.9404 54.5201 28.735 53.7978 29.6675C53.354 27.8279 52.8653 25.9773 52.3371 24.1667C48.7221 11.8097 44.7352 5.80078 40.1446 5.80078C35.5541 5.80078 31.5672 11.8097 27.954 24.1685C27.424 25.9809 26.9353 27.8351 26.4915 29.6766C25.78 28.755 24.8852 27.9512 23.8234 27.3326C19.3891 24.7491 13.7007 26.2876 11.1404 30.7634C9.90071 32.9314 9.57191 35.4587 10.2133 37.8771C10.8548 40.2956 12.3909 42.3167 14.5398 43.5703C15.5855 44.1799 16.7174 44.5718 17.8781 44.7369C16.5234 46.045 15.1794 47.3966 13.8912 48.7646C5.09632 58.1063 1.93771 64.5978 4.23211 68.6109C5.54011 70.8969 8.42022 72.0381 12.9533 72.0381C16.376 72.0381 20.742 71.3868 26.0818 70.0877C27.9019 69.6451 29.7363 69.1443 31.5366 68.6127C31.1018 69.6959 30.8611 70.8788 30.8611 72.1179C30.8611 77.2868 35.0258 81.4923 40.1446 81.4923C45.2635 81.4923 49.4282 77.2868 49.4282 72.1179C49.4282 70.8788 49.1875 69.6959 48.7527 68.6127C50.5547 69.1443 52.3892 69.6451 54.2074 70.0877C59.5473 71.3868 63.9115 72.0381 67.3342 72.0381C71.8655 72.0381 74.7474 70.8969 76.0554 68.6109C78.3534 64.5978 75.193 58.1063 66.3999 48.7664ZM52.5185 47.93C52.5185 47.9464 52.5185 47.9645 52.5168 47.9808C52.4646 49.962 51.949 51.9087 51.0129 53.6504C51.0039 53.6686 50.9931 53.6867 50.9842 53.7049C50.95 53.7665 50.9141 53.8282 50.8782 53.8899C50.8296 53.977 50.7811 54.0641 50.729 54.1494C50.7236 54.1602 50.7164 54.1693 50.7111 54.1802C49.6869 55.8711 48.2747 57.2971 46.602 58.3349C46.5768 58.3512 46.5517 58.3657 46.5247 58.3821C46.3882 58.4655 46.248 58.5453 46.1079 58.6234C46.0648 58.6469 46.0217 58.6723 45.9785 58.6959C45.8492 58.7667 45.718 58.8338 45.5869 58.8991C45.5366 58.9245 45.4844 58.9499 45.4341 58.9735C45.3012 59.037 45.1664 59.0987 45.0317 59.1586C44.985 59.1785 44.94 59.1985 44.8933 59.2184C44.746 59.2801 44.5987 59.34 44.4477 59.3962H44.446C44.3471 59.4325 44.2447 59.467 44.1441 59.5015C44.0633 59.5287 43.9824 59.5577 43.9015 59.5849C43.7542 59.6321 43.6051 59.6756 43.456 59.7174C43.4128 59.7301 43.3697 59.7428 43.3248 59.7555C43.1739 59.7954 43.023 59.8317 42.872 59.8661C42.8199 59.8788 42.7678 59.8915 42.7157 59.9024C42.5989 59.9278 42.4804 59.9478 42.3618 59.9714C42.2665 59.9895 42.1731 60.0076 42.0779 60.0222C42.0096 60.033 41.9413 60.0421 41.8731 60.0512C41.7221 60.073 41.5712 60.0929 41.4203 60.1092C41.4059 60.1111 41.3898 60.1111 41.3754 60.1129C40.9711 60.1528 40.5597 60.1746 40.1446 60.1746C39.726 60.1746 39.3128 60.1528 38.9067 60.1111C38.8941 60.1092 38.8834 60.1092 38.8708 60.1074C38.7145 60.0911 38.5617 60.0693 38.4072 60.0476C38.3425 60.0385 38.2779 60.0312 38.2114 60.0203C38.1144 60.004 38.0173 59.9859 37.9203 59.9677C37.8035 59.946 37.6885 59.926 37.5718 59.9006C37.5179 59.8897 37.4658 59.8752 37.4136 59.8643C37.2627 59.8298 37.1118 59.7936 36.9609 59.7536C36.9196 59.7428 36.8764 59.7301 36.8351 59.7174C36.6842 59.6756 36.5333 59.6321 36.3859 59.5831C36.3051 59.5577 36.2278 59.5287 36.147 59.5015C36.0446 59.467 35.9421 59.4307 35.8397 59.3944C35.6906 59.3382 35.5415 59.2783 35.3942 59.2166C35.3492 59.1967 35.3025 59.1785 35.2576 59.1586C35.1211 59.0987 34.9863 59.037 34.8515 58.9735C34.8012 58.9499 34.7509 58.9245 34.7024 58.9009C34.5695 58.8356 34.4365 58.7667 34.3053 58.6959C34.264 58.6742 34.2209 58.6506 34.1796 58.627C34.0358 58.5472 33.8921 58.4637 33.7502 58.3784C33.7322 58.3675 33.716 58.3567 33.6981 58.3458C32.0181 57.308 30.6005 55.8765 29.571 54.1784C29.5603 54.1621 29.5513 54.1457 29.5405 54.1276C29.4542 53.9843 29.3734 53.8391 29.2925 53.6922C29.2692 53.6504 29.2476 53.6087 29.2243 53.567C29.1542 53.4345 29.0859 53.3003 29.0194 53.1642C28.9961 53.1152 28.9709 53.0644 28.9476 53.0154C28.8829 52.8794 28.8218 52.7415 28.7625 52.6036C28.7428 52.5582 28.7248 52.5129 28.705 52.4693C28.6439 52.3206 28.5846 52.17 28.5289 52.0176C28.4912 51.916 28.4571 51.8108 28.4229 51.7073C28.396 51.6275 28.3672 51.5477 28.3421 51.466C28.2954 51.3155 28.2505 51.1631 28.2091 51.0107C28.1984 50.9689 28.1858 50.9272 28.1732 50.8855C28.1337 50.7331 28.0977 50.5807 28.0636 50.4265C28.051 50.3739 28.0384 50.3212 28.0277 50.2686C28.0025 50.1507 27.9827 50.0346 27.9612 49.9167C27.9432 49.8187 27.9253 49.7225 27.9091 49.6246C27.8983 49.5592 27.8911 49.4939 27.8821 49.4268C27.8606 49.2708 27.839 49.1166 27.8228 48.9587C27.821 48.946 27.821 48.9351 27.8192 48.9224C27.7779 48.5106 27.7564 48.0933 27.7564 47.6724C27.7564 47.2497 27.7779 46.8324 27.8192 46.4224C27.821 46.4097 27.821 46.3988 27.8228 46.3861C27.839 46.2282 27.8606 46.074 27.8821 45.918C27.8911 45.8527 27.8983 45.7874 27.9091 45.7202C27.9253 45.6223 27.9432 45.5243 27.9612 45.4281C27.9827 45.3102 28.0025 45.1941 28.0277 45.0762C28.0384 45.0236 28.0528 44.9709 28.0636 44.9183C28.0977 44.7659 28.1337 44.6135 28.1732 44.4611C28.184 44.4194 28.1966 44.3777 28.2091 44.3359C28.2505 44.1835 28.2954 44.0312 28.3421 43.8806C28.3672 43.7989 28.396 43.7191 28.4229 43.6393C28.4571 43.5359 28.4912 43.4324 28.5289 43.3308V43.329C28.5846 43.1784 28.6439 43.0297 28.705 42.8809C28.7248 42.8337 28.7445 42.7866 28.7643 42.7412C28.8218 42.6051 28.8829 42.4691 28.9458 42.3348C28.9709 42.2822 28.9943 42.2314 29.0194 42.1788C29.0841 42.0463 29.1506 41.9139 29.2207 41.7833C29.244 41.7397 29.2674 41.6944 29.2925 41.6508C29.3698 41.5093 29.4489 41.3696 29.5315 41.2317C29.5477 41.2063 29.562 41.1809 29.5782 41.1555C30.6059 39.4646 32.0217 38.0368 33.6981 37.0008C33.7053 36.9954 33.7124 36.9918 33.7196 36.9863C33.7969 36.9392 33.8741 36.8956 33.9532 36.8503C34.0269 36.8067 34.0987 36.7632 34.1742 36.7214C34.185 36.716 34.194 36.7106 34.2047 36.7051C35.9314 35.7562 37.8628 35.2337 39.8284 35.1811C39.8554 35.1811 39.8823 35.1793 39.9093 35.1793C40.0674 35.1757 40.2273 35.1775 40.3872 35.1793C40.4429 35.1811 40.5004 35.1811 40.5561 35.1829C40.6944 35.1866 40.8328 35.1938 40.9711 35.2029C41.0448 35.2083 41.1167 35.2138 41.1885 35.2192C41.3143 35.2301 41.4383 35.2428 41.564 35.2573C41.6467 35.2664 41.7293 35.2773 41.812 35.29C41.927 35.3063 42.0438 35.3226 42.1587 35.3426C42.227 35.3535 42.2935 35.3662 42.3618 35.3789C42.4157 35.3898 42.4696 35.3988 42.5235 35.4097C42.5989 35.4242 42.6744 35.4388 42.7499 35.4551C42.7894 35.4642 42.8271 35.4732 42.8666 35.4823C42.9888 35.5113 43.111 35.5404 43.2332 35.5712C43.2673 35.5803 43.3015 35.5875 43.3356 35.5966C43.3715 35.6057 43.4075 35.6165 43.4416 35.6274C43.5638 35.6619 43.6859 35.6982 43.8081 35.7363C43.8441 35.7472 43.8782 35.7581 43.9141 35.7689C43.9878 35.7925 44.0597 35.8179 44.1333 35.8433C44.189 35.8633 44.2447 35.8814 44.3004 35.9014C44.3615 35.9232 44.4226 35.9449 44.4837 35.9685C44.5951 36.0102 44.7047 36.0556 44.8161 36.101C44.8915 36.1318 44.967 36.1645 45.0407 36.1971C45.1574 36.2479 45.2742 36.3023 45.391 36.3568C45.4539 36.3876 45.5186 36.4185 45.5815 36.4493C45.709 36.5128 45.8348 36.5781 45.9588 36.6452C46.0055 36.6706 46.0522 36.696 46.0989 36.7233C46.2409 36.8031 46.381 36.8829 46.5211 36.9682C46.5409 36.9809 46.5607 36.9936 46.5804 37.0045C48.2586 38.0422 49.6726 39.4719 50.7003 41.1664C50.7057 41.1773 50.7129 41.1864 50.7182 41.1973C50.7668 41.2771 50.8117 41.3587 50.8566 41.4404C50.8943 41.5075 50.9339 41.5728 50.9716 41.6418C50.9824 41.6599 50.9913 41.678 51.0003 41.6962C51.9364 43.4379 52.4521 45.3846 52.5042 47.3658C52.5042 47.3821 52.506 47.4003 52.506 47.4166C52.5078 47.5019 52.506 47.5871 52.506 47.6724C52.5185 47.7595 52.5203 47.8448 52.5185 47.93ZM56.1281 34.1034C56.4839 32.7591 57.3391 31.636 58.5321 30.9412C59.3263 30.4785 60.2084 30.2409 61.1032 30.2409C61.5506 30.2409 62.0016 30.3007 62.4471 30.4205C63.7785 30.7797 64.8907 31.6433 65.5788 32.848C66.2669 34.0526 66.4502 35.4569 66.0944 36.8013C65.7387 38.1456 64.8853 39.2687 63.6905 39.9636C62.4974 40.6602 61.1068 40.8435 59.7754 40.4842C58.4441 40.125 57.3319 39.2614 56.6438 38.0567C55.9538 36.8521 55.7706 35.4478 56.1281 34.1034ZM40.1446 9.96635C41.5335 9.96635 44.8286 13.2066 48.3789 25.3478C49.2773 28.4193 50.066 31.6759 50.7111 34.7693C50.2583 34.4445 49.8325 34.1506 49.439 33.8912C49.1443 33.688 48.8425 33.4939 48.5335 33.3106C48.1867 33.1056 47.8309 32.9115 47.4698 32.7319C47.2272 32.6121 46.9829 32.4978 46.735 32.389C46.611 32.3345 46.4852 32.2819 46.3594 32.2311C46.3002 32.2075 46.2391 32.1839 46.1798 32.1604C46.1456 32.1477 46.1115 32.1331 46.0774 32.1204C46.0091 32.095 45.9408 32.0678 45.8725 32.0424C45.7899 32.0116 45.7072 31.9807 45.6246 31.9517C45.6156 31.9481 45.6048 31.9445 45.5958 31.9408C45.5833 31.9372 45.5725 31.9336 45.5599 31.9281C45.5294 31.9172 45.5006 31.9064 45.4701 31.8973C45.4539 31.8918 45.4395 31.8864 45.4234 31.881C45.3227 31.8465 45.2203 31.8138 45.1197 31.7812C45.0892 31.7721 45.0568 31.7612 45.0263 31.7503C44.9382 31.7231 44.8502 31.6959 44.7604 31.6705C44.7155 31.6578 44.6705 31.6433 44.6256 31.6306C44.5484 31.6088 44.4729 31.5889 44.3956 31.5671C44.3381 31.5508 44.2807 31.5362 44.2232 31.5199C44.1585 31.5036 44.0938 31.4873 44.0291 31.4728C43.959 31.4564 43.889 31.4383 43.8171 31.422C43.765 31.4093 43.7129 31.3984 43.6608 31.3875C43.5763 31.3693 43.4919 31.3512 43.4075 31.3331C43.3697 31.3258 43.3338 31.3185 43.2961 31.3113C43.2871 31.3095 43.2763 31.3077 43.2673 31.3058C43.235 31.3004 43.2026 31.2931 43.1703 31.2877C43.1128 31.2768 43.0553 31.2659 42.9978 31.255C42.978 31.2514 42.9583 31.2478 42.9403 31.246C42.8595 31.2315 42.7768 31.2188 42.696 31.2042C42.669 31.2006 42.6421 31.1952 42.6169 31.1915C38.9229 30.62 35.1768 31.324 31.8942 33.238C31.251 33.6136 30.4676 34.1325 29.5818 34.7675C30.225 31.6741 31.0156 28.4175 31.9139 25.3459C35.4606 13.2066 38.7576 9.96635 40.1446 9.96635ZM14.1966 36.7995C13.8409 35.4551 14.0223 34.0526 14.7123 32.848C15.6663 31.1788 17.4037 30.2445 19.1879 30.2445C20.0629 30.2445 20.9486 30.4695 21.759 30.9412C22.952 31.636 23.8054 32.7591 24.1629 34.1034C24.5187 35.4478 24.3372 36.8503 23.6473 38.0567C22.9592 39.2614 21.8452 40.1232 20.5156 40.4842C19.1843 40.8435 17.7954 40.6602 16.6006 39.9636C15.4076 39.2669 14.5542 38.1438 14.1966 36.7995ZM25.1152 66.0383C12.9264 69.0064 8.50108 67.7419 7.80575 66.5281C7.11222 65.3144 8.24235 60.8114 16.8809 51.6366C19.0657 49.3161 21.4643 46.9975 23.7946 44.8875C23.7425 45.4427 23.703 45.9597 23.6778 46.4333C23.588 47.6688 23.6347 48.9188 23.8234 50.1616C23.8288 50.1924 23.8324 50.2251 23.8377 50.2559C23.8503 50.3339 23.8629 50.412 23.8755 50.49C23.8773 50.499 23.8791 50.5081 23.8791 50.5172C23.8809 50.5281 23.8827 50.5408 23.8845 50.5517C23.8952 50.6133 23.906 50.675 23.9186 50.7367C23.924 50.7657 23.9294 50.7948 23.9348 50.822C23.9384 50.8383 23.942 50.8564 23.9438 50.8728C23.9491 50.9036 23.9545 50.9345 23.9617 50.9653C23.9797 51.0578 23.9995 51.1485 24.0192 51.2411C24.0282 51.2864 24.039 51.3318 24.048 51.3771C24.0659 51.4552 24.0839 51.5332 24.1037 51.6112C24.118 51.6692 24.1306 51.7273 24.1468 51.7872C24.163 51.8525 24.1809 51.9178 24.1989 51.9831C24.2169 52.0539 24.2366 52.1246 24.2564 52.1936C24.2708 52.2462 24.2869 52.2988 24.3013 52.3514C24.3247 52.433 24.3498 52.5165 24.375 52.5982C24.3875 52.6363 24.4001 52.6762 24.4109 52.7143C24.4414 52.8086 24.4702 52.9048 24.5025 52.9991C24.5097 53.0227 24.5187 53.0463 24.5277 53.0699C24.5349 53.0916 24.5439 53.1152 24.551 53.137C24.56 53.1624 24.569 53.1878 24.578 53.2132C24.5995 53.2749 24.6211 53.3347 24.6427 53.3964C24.6445 53.4019 24.6463 53.4055 24.6481 53.4109C24.6535 53.4255 24.6588 53.44 24.6642 53.4527C24.6912 53.5252 24.7181 53.5978 24.7451 53.6686C24.7577 53.6994 24.7684 53.7303 24.781 53.7629C26.0351 57.0068 28.2433 59.7464 31.1575 61.6514C31.1629 61.655 31.1665 61.6568 31.1719 61.6604C31.2743 61.7276 31.3767 61.7911 31.4791 61.8564C31.4971 61.8673 31.5133 61.8782 31.5312 61.889C31.6516 61.9634 31.772 62.036 31.8942 62.1068C32.0343 62.1884 32.1888 62.2737 32.3469 62.3608C32.3649 62.3716 32.3847 62.3807 32.4026 62.3916C32.9578 62.6928 33.6154 63.0193 34.361 63.3659C31.3857 64.3492 28.1966 65.2872 25.1152 66.0383ZM40.1446 77.3285C37.3005 77.3285 34.9863 74.9917 34.9863 72.1197C34.9863 69.2477 37.3005 66.911 40.1446 66.911C42.9888 66.911 45.303 69.2477 45.303 72.1197C45.303 74.9917 42.9888 77.3285 40.1446 77.3285ZM72.4835 66.5281C71.79 67.7419 67.3629 69.0046 55.1741 66.0383C52.0909 65.2872 48.9036 64.351 45.9282 63.3677C46.4816 63.1119 46.9865 62.8651 47.4357 62.6329C50.3499 61.1905 52.7773 58.9118 54.4374 56.009C54.9189 55.169 55.316 54.3018 55.6376 53.42C55.6412 53.4109 55.643 53.4037 55.6466 53.3946C55.6843 53.2894 55.7221 53.1842 55.758 53.0789C55.767 53.0517 55.776 53.0245 55.7867 52.9973C55.8173 52.9066 55.846 52.8159 55.8748 52.7233C55.8874 52.6816 55.9017 52.6381 55.9143 52.5963C55.9377 52.5183 55.961 52.4403 55.9844 52.3605C56.0006 52.3042 56.0167 52.248 56.0329 52.1918C56.0509 52.1264 56.0688 52.0593 56.0868 51.9922C56.1048 51.9232 56.1245 51.8543 56.1407 51.7835C56.1551 51.7291 56.1677 51.6747 56.1802 51.6221C56.2 51.5404 56.2198 51.457 56.2395 51.3735C56.2485 51.3336 56.2575 51.2919 56.2665 51.252C56.288 51.1558 56.3078 51.0578 56.3276 50.9617C56.3329 50.9363 56.3365 50.9127 56.3419 50.8873C56.3635 50.7748 56.3851 50.6605 56.4048 50.5462C56.4048 50.5408 56.4066 50.5371 56.4066 50.5317C56.5665 49.6028 56.651 48.6485 56.651 47.6742C56.651 46.9231 56.5971 45.9797 56.4964 44.8875C58.8268 46.9975 61.2254 49.3161 63.4102 51.6366C72.0487 60.8114 73.1789 65.3144 72.4835 66.5281Z" fill="white"/>
</g>
<defs>
<filter id="filter0_d_816_556" x="0.0806563" y="5.80078" width="547.286" height="82.5496" filterUnits="userSpaceOnUse" color-interpolation-filters="sRGB">
<feFlood flood-opacity="0" result="BackgroundImageFix"/>
<feColorMatrix in="SourceAlpha" type="matrix" values="0 0 0 0 0 0 0 0 0 0 0 0 0 0 0 0 0 0 127 0" result="hardAlpha"/>
<feOffset dy="3.42911"/>
<feGaussianBlur stdDeviation="1.71455"/>
<feComposite in2="hardAlpha" operator="out"/>
<feColorMatrix type="matrix" values="0 0 0 0 0 0 0 0 0 0 0 0 0 0 0 0 0 0 0.25 0"/>
<feBlend mode="normal" in2="BackgroundImageFix" result="effect1_dropShadow_816_556"/>
<feBlend mode="normal" in="SourceGraphic" in2="effect1_dropShadow_816_556" result="shape"/>
</filter>
<filter id="filter1_d_816_556" x="95.9351" y="0.692852" width="467.72" height="101.025" filterUnits="userSpaceOnUse" color-interpolation-filters="sRGB">
<feFlood flood-opacity="0" result="BackgroundImageFix"/>
<feColorMatrix in="SourceAlpha" type="matrix" values="0 0 0 0 0 0 0 0 0 0 0 0 0 0 0 0 0 0 127 0" result="hardAlpha"/>
<feOffset dx="2.57183" dy="8.57277"/>
<feGaussianBlur stdDeviation="8.57277"/>
<feComposite in2="hardAlpha" operator="out"/>
<feColorMatrix type="matrix" values="0 0 0 0 0 0 0 0 0 0 0 0 0 0 0 0 0 0 0.25 0"/>
<feBlend mode="normal" in2="BackgroundImageFix" result="effect1_dropShadow_816_556"/>
<feBlend mode="normal" in="SourceGraphic" in2="effect1_dropShadow_816_556" result="shape"/>
</filter>
</defs>
</svg>
