<svg width="566" height="144" viewBox="0 0 566 144" fill="none" xmlns="http://www.w3.org/2000/svg">
<g filter="url(#filter0_d_639_529)">
<g filter="url(#filter1_d_639_529)">
<path d="M110.509 9.26585H119.756L140.635 58.0771H140.825L161.799 9.26585H171.046V76H162.276V27.2841H162.085L143.971 68.4686H137.489L119.47 27.2841H119.28V76H110.509V9.26585ZM183.931 66.8479V37.6755L193.084 28.5234H218.443L227.499 37.6755V66.8479L218.443 76H193.084L183.931 66.8479ZM214.343 68.2779L218.633 64.0832V40.4402L214.343 36.2455H197.088L192.798 40.4402V64.0832L197.088 68.2779H214.343ZM238.954 66.8479V37.6755L248.106 28.5234H273.465L282.521 37.6755V66.8479L273.465 76H248.106L238.954 66.8479ZM269.365 68.2779L273.655 64.0832V40.4402L269.365 36.2455H252.11L247.82 40.4402V64.0832L252.11 68.2779H269.365ZM294.929 28.5234H303.414V37.8662L312.757 28.5234H327.629L336.972 37.8662V76H328.105V40.5356L323.815 36.2455H314.759L303.795 47.209V76H294.929V28.5234ZM349.381 65.3225V19.9433L360.059 9.26585H390.566L400.862 19.562V27.0934H391.71V22.8034L386.181 17.274H364.444L358.534 23.1847V62.0812L364.444 67.9919H385.99L391.805 62.1765V48.4483H377.028V40.4402H400.862V65.3225L390.185 76H360.059L349.381 65.3225ZM411.364 67.8966V56.1704L419.467 48.067H444.445V40.0589L440.25 35.9595H424.711L420.611 40.0589V43.5863H411.745V37.7709L420.993 28.5234H443.968L453.216 37.7709V76H444.921V68.1826L436.723 76H419.467L411.364 67.8966ZM435.483 68.6592L444.445 60.0791V55.1217H423.567L420.23 58.4585V65.4179L423.567 68.6592H435.483ZM469.406 66.9432V36.1502H460.826V28.5234H469.597V13.0792H478.272V28.5234H493.049V36.2455H478.272V64.0832L482.562 68.2779H493.049V76H478.558L469.406 66.9432ZM500.751 66.9432V37.6755L509.903 28.5234H534.785L543.938 37.6755V55.0264H509.617V64.1785L513.812 68.3732H530.877L535.071 64.2739V61.0325H543.842V66.9432L534.881 76H509.808L500.751 66.9432ZM535.071 48.067V40.3449L530.781 36.1502H513.907L509.617 40.3449V48.067H535.071Z" fill="white"/>
<path d="M111.351 101.321H113.222L117.62 112.064H117.772L122.17 101.321H124.041V114.264H122.574V104.431H122.448L118.404 114.264H116.988L112.943 104.431H112.817V114.264H111.351V101.321ZM133.229 114.491C132.614 114.491 132.056 114.375 131.555 114.144C131.053 113.908 130.655 113.569 130.36 113.126C130.065 112.68 129.918 112.14 129.918 111.508C129.918 110.952 130.027 110.501 130.246 110.156C130.465 109.806 130.758 109.532 131.125 109.334C131.491 109.136 131.896 108.989 132.338 108.892C132.785 108.791 133.233 108.711 133.684 108.652C134.274 108.576 134.752 108.519 135.119 108.481C135.489 108.439 135.759 108.37 135.928 108.273C136.1 108.176 136.187 108.007 136.187 107.767V107.717C136.187 107.093 136.016 106.609 135.675 106.263C135.338 105.918 134.826 105.745 134.139 105.745C133.427 105.745 132.869 105.901 132.465 106.213C132.06 106.524 131.776 106.857 131.611 107.211L130.196 106.706C130.449 106.116 130.786 105.656 131.207 105.328C131.632 104.995 132.096 104.763 132.597 104.633C133.103 104.498 133.6 104.431 134.089 104.431C134.4 104.431 134.759 104.468 135.163 104.544C135.572 104.616 135.966 104.765 136.345 104.993C136.728 105.22 137.046 105.564 137.299 106.023C137.552 106.482 137.678 107.097 137.678 107.868V114.264H136.187V112.949H136.111C136.01 113.16 135.841 113.385 135.605 113.625C135.369 113.866 135.056 114.07 134.664 114.238C134.272 114.407 133.794 114.491 133.229 114.491ZM133.457 113.151C134.047 113.151 134.544 113.036 134.948 112.804C135.357 112.572 135.664 112.273 135.871 111.906C136.081 111.54 136.187 111.154 136.187 110.75V109.385C136.124 109.461 135.984 109.53 135.77 109.594C135.559 109.653 135.315 109.705 135.037 109.752C134.763 109.794 134.495 109.832 134.234 109.865C133.977 109.895 133.768 109.92 133.608 109.941C133.221 109.992 132.858 110.074 132.521 110.188C132.189 110.297 131.919 110.464 131.712 110.687C131.51 110.906 131.409 111.205 131.409 111.584C131.409 112.102 131.601 112.494 131.984 112.76C132.372 113.021 132.863 113.151 133.457 113.151ZM145.183 110.725L145.157 108.879H145.461L149.707 104.557H151.553L147.028 109.132H146.902L145.183 110.725ZM143.792 114.264V101.321H145.284V114.264H143.792ZM149.96 114.264L146.168 109.461L147.23 108.424L151.856 114.264H149.96ZM160.534 114.466C159.599 114.466 158.792 114.259 158.114 113.847C157.44 113.429 156.92 112.848 156.553 112.102C156.191 111.352 156.01 110.48 156.01 109.486C156.01 108.492 156.191 107.616 156.553 106.857C156.92 106.095 157.429 105.501 158.082 105.075C158.74 104.645 159.506 104.431 160.383 104.431C160.888 104.431 161.388 104.515 161.88 104.683C162.373 104.852 162.822 105.126 163.227 105.505C163.631 105.88 163.953 106.377 164.193 106.996C164.434 107.616 164.554 108.378 164.554 109.284V109.916H157.071V108.627H163.037C163.037 108.079 162.927 107.59 162.708 107.161C162.493 106.731 162.186 106.392 161.786 106.143C161.39 105.895 160.922 105.77 160.383 105.77C159.789 105.77 159.275 105.918 158.841 106.213C158.411 106.503 158.08 106.882 157.849 107.35C157.617 107.818 157.501 108.319 157.501 108.854V109.714C157.501 110.447 157.627 111.068 157.88 111.578C158.137 112.083 158.493 112.469 158.948 112.734C159.403 112.996 159.932 113.126 160.534 113.126C160.926 113.126 161.28 113.071 161.596 112.962C161.916 112.848 162.192 112.68 162.424 112.456C162.656 112.229 162.835 111.947 162.961 111.609L164.402 112.014C164.25 112.503 163.995 112.932 163.637 113.303C163.279 113.67 162.837 113.956 162.31 114.163C161.784 114.365 161.192 114.466 160.534 114.466ZM182.681 114.466C181.746 114.466 180.939 114.259 180.261 113.847C179.587 113.429 179.067 112.848 178.7 112.102C178.338 111.352 178.157 110.48 178.157 109.486C178.157 108.492 178.338 107.616 178.7 106.857C179.067 106.095 179.576 105.501 180.229 105.075C180.887 104.645 181.653 104.431 182.53 104.431C183.035 104.431 183.534 104.515 184.027 104.683C184.52 104.852 184.969 105.126 185.373 105.505C185.778 105.88 186.1 106.377 186.34 106.996C186.58 107.616 186.701 108.378 186.701 109.284V109.916H179.218V108.627H185.184C185.184 108.079 185.074 107.59 184.855 107.161C184.64 106.731 184.333 106.392 183.933 106.143C183.537 105.895 183.069 105.77 182.53 105.77C181.936 105.77 181.422 105.918 180.988 106.213C180.558 106.503 180.227 106.882 179.995 107.35C179.764 107.818 179.648 108.319 179.648 108.854V109.714C179.648 110.447 179.774 111.068 180.027 111.578C180.284 112.083 180.64 112.469 181.095 112.734C181.55 112.996 182.079 113.126 182.681 113.126C183.073 113.126 183.427 113.071 183.743 112.962C184.063 112.848 184.339 112.68 184.571 112.456C184.803 112.229 184.982 111.947 185.108 111.609L186.549 112.014C186.397 112.503 186.142 112.932 185.784 113.303C185.426 113.67 184.984 113.956 184.457 114.163C183.93 114.365 183.339 114.466 182.681 114.466ZM200.003 104.557L196.414 114.264H194.897L191.308 104.557H192.925L195.605 112.292H195.706L198.385 104.557H200.003ZM209.086 114.466C208.151 114.466 207.344 114.259 206.666 113.847C205.992 113.429 205.471 112.848 205.105 112.102C204.742 111.352 204.561 110.48 204.561 109.486C204.561 108.492 204.742 107.616 205.105 106.857C205.471 106.095 205.981 105.501 206.634 105.075C207.291 104.645 208.058 104.431 208.934 104.431C209.44 104.431 209.939 104.515 210.432 104.683C210.925 104.852 211.374 105.126 211.778 105.505C212.183 105.88 212.505 106.377 212.745 106.996C212.985 107.616 213.105 108.378 213.105 109.284V109.916H205.623V108.627H211.589C211.589 108.079 211.479 107.59 211.26 107.161C211.045 106.731 210.737 106.392 210.337 106.143C209.941 105.895 209.474 105.77 208.934 105.77C208.34 105.77 207.826 105.918 207.392 106.213C206.963 106.503 206.632 106.882 206.4 107.35C206.168 107.818 206.053 108.319 206.053 108.854V109.714C206.053 110.447 206.179 111.068 206.432 111.578C206.689 112.083 207.045 112.469 207.5 112.734C207.955 112.996 208.484 113.126 209.086 113.126C209.478 113.126 209.832 113.071 210.148 112.962C210.468 112.848 210.744 112.68 210.976 112.456C211.207 112.229 211.386 111.947 211.513 111.609L212.954 112.014C212.802 112.503 212.547 112.932 212.189 113.303C211.831 113.67 211.388 113.956 210.862 114.163C210.335 114.365 209.743 114.466 209.086 114.466ZM218.766 114.264V104.557H220.207V106.023H220.308C220.485 105.543 220.805 105.153 221.269 104.854C221.732 104.555 222.254 104.405 222.836 104.405C222.945 104.405 223.082 104.407 223.247 104.412C223.411 104.416 223.535 104.422 223.619 104.431V105.947C223.569 105.935 223.453 105.916 223.272 105.89C223.095 105.861 222.907 105.846 222.709 105.846C222.237 105.846 221.816 105.945 221.445 106.143C221.079 106.337 220.788 106.607 220.573 106.952C220.363 107.293 220.257 107.683 220.257 108.121V114.264H218.766ZM230.035 117.904C229.783 117.904 229.557 117.883 229.359 117.841C229.161 117.803 229.024 117.765 228.948 117.727L229.328 116.412C229.69 116.505 230.01 116.539 230.288 116.513C230.566 116.488 230.813 116.364 231.027 116.141C231.247 115.921 231.447 115.565 231.628 115.073L231.906 114.314L228.316 104.557H229.934L232.614 112.292H232.715L235.394 104.557H237.012L232.892 115.679C232.706 116.181 232.477 116.596 232.203 116.924C231.929 117.257 231.611 117.503 231.249 117.664C230.891 117.824 230.486 117.904 230.035 117.904ZM254.435 114.466C253.626 114.466 252.912 114.262 252.293 113.853C251.674 113.44 251.189 112.859 250.839 112.109C250.49 111.355 250.315 110.464 250.315 109.436C250.315 108.416 250.49 107.531 250.839 106.781C251.189 106.031 251.676 105.452 252.299 105.043C252.923 104.635 253.643 104.431 254.46 104.431C255.092 104.431 255.592 104.536 255.958 104.746C256.329 104.953 256.611 105.189 256.805 105.454C257.003 105.715 257.157 105.93 257.266 106.099H257.393V101.321H258.884V114.264H257.443V112.772H257.266C257.157 112.949 257.001 113.173 256.799 113.442C256.596 113.708 256.308 113.946 255.933 114.156C255.558 114.363 255.059 114.466 254.435 114.466ZM254.637 113.126C255.236 113.126 255.741 112.97 256.154 112.659C256.567 112.343 256.881 111.906 257.096 111.35C257.311 110.79 257.418 110.143 257.418 109.41C257.418 108.686 257.313 108.052 257.102 107.508C256.891 106.96 256.58 106.535 256.167 106.232C255.754 105.924 255.244 105.77 254.637 105.77C254.005 105.77 253.479 105.932 253.057 106.257C252.64 106.577 252.327 107.013 252.116 107.565C251.909 108.113 251.806 108.728 251.806 109.41C251.806 110.101 251.912 110.729 252.122 111.293C252.337 111.854 252.653 112.3 253.07 112.633C253.491 112.962 254.014 113.126 254.637 113.126ZM265.948 114.264H264.305L269.057 101.321H270.675L275.427 114.264H273.784L269.916 103.369H269.815L265.948 114.264ZM266.554 109.208H273.177V110.598H266.554V109.208ZM280.633 117.904V104.557H282.074V106.099H282.251C282.36 105.93 282.512 105.715 282.706 105.454C282.904 105.189 283.186 104.953 283.552 104.746C283.923 104.536 284.425 104.431 285.057 104.431C285.874 104.431 286.594 104.635 287.218 105.043C287.841 105.452 288.328 106.031 288.678 106.781C289.027 107.531 289.202 108.416 289.202 109.436C289.202 110.464 289.027 111.355 288.678 112.109C288.328 112.859 287.843 113.44 287.224 113.853C286.605 114.262 285.891 114.466 285.082 114.466C284.458 114.466 283.959 114.363 283.584 114.156C283.209 113.946 282.921 113.708 282.718 113.442C282.516 113.173 282.36 112.949 282.251 112.772H282.124V117.904H280.633ZM282.099 109.41C282.099 110.143 282.206 110.79 282.421 111.35C282.636 111.906 282.95 112.343 283.363 112.659C283.776 112.97 284.281 113.126 284.88 113.126C285.503 113.126 286.023 112.962 286.44 112.633C286.862 112.3 287.178 111.854 287.388 111.293C287.603 110.729 287.711 110.101 287.711 109.41C287.711 108.728 287.605 108.113 287.395 107.565C287.188 107.013 286.874 106.577 286.453 106.257C286.036 105.932 285.512 105.77 284.88 105.77C284.273 105.77 283.763 105.924 283.35 106.232C282.937 106.535 282.626 106.96 282.415 107.508C282.204 108.052 282.099 108.686 282.099 109.41ZM294.869 117.904V104.557H296.31V106.099H296.487C296.597 105.93 296.748 105.715 296.942 105.454C297.14 105.189 297.422 104.953 297.789 104.746C298.16 104.536 298.661 104.431 299.293 104.431C300.11 104.431 300.831 104.635 301.454 105.043C302.078 105.452 302.564 106.031 302.914 106.781C303.264 107.531 303.438 108.416 303.438 109.436C303.438 110.464 303.264 111.355 302.914 112.109C302.564 112.859 302.08 113.44 301.46 113.853C300.841 114.262 300.127 114.466 299.318 114.466C298.695 114.466 298.195 114.363 297.82 114.156C297.445 113.946 297.157 113.708 296.955 113.442C296.752 113.173 296.597 112.949 296.487 112.772H296.361V117.904H294.869ZM296.335 109.41C296.335 110.143 296.443 110.79 296.658 111.35C296.873 111.906 297.186 112.343 297.599 112.659C298.012 112.97 298.518 113.126 299.116 113.126C299.739 113.126 300.26 112.962 300.677 112.633C301.098 112.3 301.414 111.854 301.625 111.293C301.84 110.729 301.947 110.101 301.947 109.41C301.947 108.728 301.842 108.113 301.631 107.565C301.425 107.013 301.111 106.577 300.69 106.257C300.272 105.932 299.748 105.77 299.116 105.77C298.509 105.77 297.999 105.924 297.587 106.232C297.174 106.535 296.862 106.96 296.651 107.508C296.441 108.052 296.335 108.686 296.335 109.41ZM317.705 114.264V101.321H322.23C323.131 101.321 323.875 101.477 324.461 101.789C325.046 102.096 325.482 102.511 325.769 103.034C326.055 103.552 326.198 104.127 326.198 104.759C326.198 105.315 326.099 105.774 325.901 106.137C325.708 106.499 325.451 106.786 325.13 106.996C324.814 107.207 324.471 107.363 324.1 107.464V107.59C324.496 107.616 324.894 107.755 325.295 108.007C325.695 108.26 326.03 108.622 326.299 109.094C326.569 109.566 326.704 110.143 326.704 110.826C326.704 111.475 326.556 112.058 326.262 112.576C325.967 113.095 325.501 113.505 324.865 113.809C324.229 114.112 323.401 114.264 322.381 114.264H317.705ZM319.272 112.873H322.381C323.405 112.873 324.132 112.675 324.562 112.279C324.996 111.879 325.213 111.395 325.213 110.826C325.213 110.388 325.101 109.983 324.878 109.613C324.654 109.238 324.336 108.938 323.923 108.715C323.51 108.488 323.022 108.374 322.457 108.374H319.272V112.873ZM319.272 107.009H322.179C322.651 107.009 323.077 106.916 323.456 106.731C323.839 106.545 324.142 106.284 324.366 105.947C324.593 105.61 324.707 105.214 324.707 104.759C324.707 104.19 324.509 103.708 324.113 103.312C323.717 102.912 323.089 102.712 322.23 102.712H319.272V107.009ZM333.96 101.321V114.264H332.469V101.321H333.96ZM344.027 114.466C343.151 114.466 342.382 114.257 341.721 113.84C341.064 113.423 340.55 112.84 340.179 112.09C339.812 111.34 339.629 110.464 339.629 109.461C339.629 108.45 339.812 107.567 340.179 106.813C340.55 106.059 341.064 105.473 341.721 105.056C342.382 104.639 343.151 104.431 344.027 104.431C344.904 104.431 345.671 104.639 346.328 105.056C346.989 105.473 347.503 106.059 347.87 106.813C348.24 107.567 348.426 108.45 348.426 109.461C348.426 110.464 348.24 111.34 347.87 112.09C347.503 112.84 346.989 113.423 346.328 113.84C345.671 114.257 344.904 114.466 344.027 114.466ZM344.027 113.126C344.693 113.126 345.241 112.956 345.671 112.614C346.1 112.273 346.418 111.824 346.625 111.268C346.831 110.712 346.934 110.11 346.934 109.461C346.934 108.812 346.831 108.207 346.625 107.647C346.418 107.087 346.1 106.634 345.671 106.288C345.241 105.943 344.693 105.77 344.027 105.77C343.362 105.77 342.814 105.943 342.384 106.288C341.955 106.634 341.637 107.087 341.43 107.647C341.224 108.207 341.121 108.812 341.121 109.461C341.121 110.11 341.224 110.712 341.43 111.268C341.637 111.824 341.955 112.273 342.384 112.614C342.814 112.956 343.362 113.126 344.027 113.126ZM358.038 114.466C357.128 114.466 356.344 114.251 355.687 113.821C355.03 113.392 354.524 112.8 354.17 112.046C353.816 111.291 353.64 110.43 353.64 109.461C353.64 108.475 353.821 107.605 354.183 106.851C354.55 106.093 355.059 105.501 355.712 105.075C356.37 104.645 357.136 104.431 358.013 104.431C358.695 104.431 359.31 104.557 359.858 104.81C360.406 105.062 360.854 105.416 361.204 105.871C361.554 106.326 361.771 106.857 361.855 107.464H360.364C360.25 107.022 359.997 106.63 359.605 106.288C359.218 105.943 358.695 105.77 358.038 105.77C357.457 105.77 356.947 105.922 356.509 106.225C356.075 106.524 355.736 106.948 355.491 107.495C355.251 108.039 355.131 108.677 355.131 109.41C355.131 110.16 355.249 110.813 355.485 111.369C355.725 111.925 356.062 112.357 356.496 112.665C356.934 112.972 357.448 113.126 358.038 113.126C358.426 113.126 358.777 113.059 359.093 112.924C359.409 112.789 359.677 112.595 359.896 112.343C360.115 112.09 360.271 111.786 360.364 111.433H361.855C361.771 112.005 361.562 112.522 361.229 112.981C360.901 113.436 360.465 113.798 359.921 114.068C359.382 114.333 358.754 114.466 358.038 114.466ZM368.818 110.725L368.792 108.879H369.096L373.342 104.557H375.188L370.663 109.132H370.536L368.818 110.725ZM367.427 114.264V101.321H368.919V114.264H367.427ZM373.595 114.264L369.803 109.461L370.865 108.424L375.491 114.264H373.595ZM384.043 114.466C383.133 114.466 382.349 114.251 381.692 113.821C381.035 113.392 380.529 112.8 380.175 112.046C379.821 111.291 379.645 110.43 379.645 109.461C379.645 108.475 379.826 107.605 380.188 106.851C380.555 106.093 381.064 105.501 381.717 105.075C382.375 104.645 383.141 104.431 384.018 104.431C384.7 104.431 385.315 104.557 385.863 104.81C386.411 105.062 386.859 105.416 387.209 105.871C387.559 106.326 387.776 106.857 387.86 107.464H386.368C386.255 107.022 386.002 106.63 385.61 106.288C385.223 105.943 384.7 105.77 384.043 105.77C383.461 105.77 382.952 105.922 382.514 106.225C382.08 106.524 381.74 106.948 381.496 107.495C381.256 108.039 381.136 108.677 381.136 109.41C381.136 110.16 381.254 110.813 381.49 111.369C381.73 111.925 382.067 112.357 382.501 112.665C382.939 112.972 383.453 113.126 384.043 113.126C384.43 113.126 384.782 113.059 385.098 112.924C385.414 112.789 385.682 112.595 385.901 112.343C386.12 112.09 386.276 111.786 386.368 111.433H387.86C387.776 112.005 387.567 112.522 387.234 112.981C386.906 113.436 386.47 113.798 385.926 114.068C385.387 114.333 384.759 114.466 384.043 114.466ZM394.924 108.424V114.264H393.432V101.321H394.924V106.074H395.05C395.277 105.572 395.619 105.174 396.074 104.879C396.533 104.58 397.144 104.431 397.906 104.431C398.568 104.431 399.147 104.563 399.644 104.829C400.141 105.09 400.527 105.492 400.801 106.036C401.079 106.575 401.218 107.262 401.218 108.096V114.264H399.726V108.197C399.726 107.426 399.526 106.83 399.126 106.409C398.73 105.983 398.18 105.77 397.477 105.77C396.988 105.77 396.55 105.873 396.162 106.08C395.779 106.286 395.475 106.588 395.252 106.984C395.033 107.38 394.924 107.86 394.924 108.424ZM410.195 114.491C409.58 114.491 409.021 114.375 408.52 114.144C408.019 113.908 407.621 113.569 407.326 113.126C407.031 112.68 406.883 112.14 406.883 111.508C406.883 110.952 406.993 110.501 407.212 110.156C407.431 109.806 407.724 109.532 408.09 109.334C408.457 109.136 408.861 108.989 409.304 108.892C409.75 108.791 410.199 108.711 410.65 108.652C411.24 108.576 411.718 108.519 412.084 108.481C412.455 108.439 412.725 108.37 412.893 108.273C413.066 108.176 413.152 108.007 413.152 107.767V107.717C413.152 107.093 412.982 106.609 412.64 106.263C412.303 105.918 411.792 105.745 411.105 105.745C410.393 105.745 409.835 105.901 409.43 106.213C409.026 106.524 408.741 106.857 408.577 107.211L407.161 106.706C407.414 106.116 407.751 105.656 408.173 105.328C408.598 104.995 409.061 104.763 409.563 104.633C410.068 104.498 410.566 104.431 411.054 104.431C411.366 104.431 411.724 104.468 412.129 104.544C412.537 104.616 412.931 104.765 413.31 104.993C413.694 105.22 414.012 105.564 414.265 106.023C414.517 106.482 414.644 107.097 414.644 107.868V114.264H413.152V112.949H413.076C412.975 113.16 412.807 113.385 412.571 113.625C412.335 113.866 412.021 114.07 411.629 114.238C411.238 114.407 410.759 114.491 410.195 114.491ZM410.422 113.151C411.012 113.151 411.509 113.036 411.914 112.804C412.322 112.572 412.63 112.273 412.836 111.906C413.047 111.54 413.152 111.154 413.152 110.75V109.385C413.089 109.461 412.95 109.53 412.735 109.594C412.525 109.653 412.28 109.705 412.002 109.752C411.728 109.794 411.461 109.832 411.2 109.865C410.943 109.895 410.734 109.92 410.574 109.941C410.186 109.992 409.824 110.074 409.487 110.188C409.154 110.297 408.885 110.464 408.678 110.687C408.476 110.906 408.375 111.205 408.375 111.584C408.375 112.102 408.566 112.494 408.95 112.76C409.337 113.021 409.828 113.151 410.422 113.151ZM420.758 114.264V104.557H422.249V114.264H420.758ZM421.516 102.939C421.226 102.939 420.975 102.84 420.764 102.642C420.558 102.444 420.455 102.206 420.455 101.928C420.455 101.65 420.558 101.412 420.764 101.214C420.975 101.016 421.226 100.917 421.516 100.917C421.807 100.917 422.056 101.016 422.262 101.214C422.473 101.412 422.578 101.65 422.578 101.928C422.578 102.206 422.473 102.444 422.262 102.642C422.056 102.84 421.807 102.939 421.516 102.939ZM429.864 108.424V114.264H428.373V104.557H429.814V106.074H429.94C430.168 105.581 430.513 105.185 430.977 104.886C431.44 104.582 432.038 104.431 432.771 104.431C433.429 104.431 434.004 104.565 434.497 104.835C434.99 105.1 435.373 105.505 435.647 106.048C435.921 106.588 436.058 107.27 436.058 108.096V114.264H434.566V108.197C434.566 107.434 434.368 106.84 433.972 106.415C433.576 105.985 433.033 105.77 432.342 105.77C431.866 105.77 431.44 105.873 431.065 106.08C430.694 106.286 430.402 106.588 430.187 106.984C429.972 107.38 429.864 107.86 429.864 108.424ZM451.305 114.264H449.662L454.414 101.321H456.032L460.784 114.264H459.141L455.274 103.369H455.173L451.305 114.264ZM451.912 109.208H458.535V110.598H451.912V109.208ZM469.908 118.106C469.188 118.106 468.569 118.013 468.05 117.828C467.532 117.647 467.1 117.407 466.755 117.107C466.414 116.813 466.142 116.497 465.94 116.16L467.128 115.325C467.263 115.502 467.433 115.705 467.64 115.932C467.846 116.164 468.128 116.364 468.486 116.532C468.849 116.705 469.323 116.791 469.908 116.791C470.692 116.791 471.339 116.602 471.848 116.223C472.358 115.844 472.613 115.25 472.613 114.441V112.469H472.487C472.377 112.646 472.221 112.865 472.019 113.126C471.821 113.383 471.535 113.613 471.16 113.815C470.789 114.013 470.287 114.112 469.656 114.112C468.872 114.112 468.168 113.927 467.545 113.556C466.925 113.185 466.435 112.646 466.072 111.938C465.714 111.23 465.535 110.371 465.535 109.36C465.535 108.365 465.71 107.5 466.06 106.762C466.409 106.021 466.896 105.448 467.52 105.043C468.143 104.635 468.863 104.431 469.681 104.431C470.313 104.431 470.814 104.536 471.185 104.746C471.56 104.953 471.846 105.189 472.044 105.454C472.247 105.715 472.402 105.93 472.512 106.099H472.664V104.557H474.104V114.542C474.104 115.376 473.915 116.054 473.536 116.577C473.161 117.103 472.655 117.489 472.019 117.733C471.387 117.982 470.683 118.106 469.908 118.106ZM469.858 112.772C470.456 112.772 470.962 112.635 471.374 112.361C471.787 112.088 472.101 111.694 472.316 111.18C472.531 110.666 472.638 110.051 472.638 109.334C472.638 108.635 472.533 108.018 472.322 107.483C472.112 106.948 471.8 106.529 471.387 106.225C470.974 105.922 470.464 105.77 469.858 105.77C469.226 105.77 468.699 105.93 468.278 106.251C467.861 106.571 467.547 107 467.336 107.54C467.13 108.079 467.027 108.677 467.027 109.334C467.027 110.009 467.132 110.605 467.343 111.123C467.557 111.637 467.873 112.041 468.291 112.336C468.712 112.627 469.234 112.772 469.858 112.772ZM481.718 108.424V114.264H480.227V104.557H481.667V106.074H481.794C482.021 105.581 482.367 105.185 482.83 104.886C483.294 104.582 483.892 104.431 484.625 104.431C485.282 104.431 485.857 104.565 486.35 104.835C486.843 105.1 487.226 105.505 487.5 106.048C487.774 106.588 487.911 107.27 487.911 108.096V114.264H486.42V108.197C486.42 107.434 486.222 106.84 485.826 106.415C485.43 105.985 484.886 105.77 484.195 105.77C483.719 105.77 483.294 105.873 482.919 106.08C482.548 106.286 482.255 106.588 482.04 106.984C481.825 107.38 481.718 107.86 481.718 108.424ZM497.972 114.466C497.096 114.466 496.327 114.257 495.665 113.84C495.008 113.423 494.494 112.84 494.123 112.09C493.757 111.34 493.573 110.464 493.573 109.461C493.573 108.45 493.757 107.567 494.123 106.813C494.494 106.059 495.008 105.473 495.665 105.056C496.327 104.639 497.096 104.431 497.972 104.431C498.848 104.431 499.615 104.639 500.272 105.056C500.934 105.473 501.448 106.059 501.814 106.813C502.185 107.567 502.37 108.45 502.37 109.461C502.37 110.464 502.185 111.34 501.814 112.09C501.448 112.84 500.934 113.423 500.272 113.84C499.615 114.257 498.848 114.466 497.972 114.466ZM497.972 113.126C498.638 113.126 499.185 112.956 499.615 112.614C500.045 112.273 500.363 111.824 500.569 111.268C500.776 110.712 500.879 110.11 500.879 109.461C500.879 108.812 500.776 108.207 500.569 107.647C500.363 107.087 500.045 106.634 499.615 106.288C499.185 105.943 498.638 105.77 497.972 105.77C497.306 105.77 496.759 105.943 496.329 106.288C495.899 106.634 495.581 107.087 495.375 107.647C495.168 108.207 495.065 108.812 495.065 109.461C495.065 110.11 495.168 110.712 495.375 111.268C495.581 111.824 495.899 112.273 496.329 112.614C496.759 112.956 497.306 113.126 497.972 113.126ZM514.915 106.731L513.575 107.11C513.491 106.887 513.366 106.67 513.202 106.459C513.042 106.244 512.823 106.067 512.545 105.928C512.267 105.789 511.911 105.72 511.477 105.72C510.883 105.72 510.388 105.857 509.992 106.13C509.6 106.4 509.404 106.743 509.404 107.161C509.404 107.531 509.539 107.824 509.808 108.039C510.078 108.254 510.499 108.433 511.072 108.576L512.513 108.93C513.381 109.141 514.028 109.463 514.453 109.897C514.879 110.327 515.091 110.881 515.091 111.559C515.091 112.115 514.931 112.612 514.611 113.05C514.295 113.488 513.853 113.834 513.284 114.087C512.715 114.34 512.054 114.466 511.3 114.466C510.31 114.466 509.49 114.251 508.841 113.821C508.193 113.392 507.782 112.764 507.609 111.938L509.025 111.584C509.16 112.107 509.414 112.498 509.789 112.76C510.169 113.021 510.664 113.151 511.274 113.151C511.97 113.151 512.522 113.004 512.93 112.709C513.343 112.41 513.55 112.052 513.55 111.635C513.55 111.298 513.432 111.015 513.196 110.788C512.96 110.556 512.597 110.383 512.109 110.27L510.491 109.891C509.602 109.68 508.949 109.353 508.532 108.911C508.119 108.464 507.913 107.906 507.913 107.236C507.913 106.689 508.066 106.204 508.374 105.783C508.686 105.362 509.109 105.031 509.644 104.791C510.183 104.551 510.794 104.431 511.477 104.431C512.437 104.431 513.191 104.641 513.739 105.062C514.291 105.484 514.683 106.04 514.915 106.731ZM524.95 104.557V105.821H519.92V104.557H524.95ZM521.386 102.231H522.877V111.483C522.877 111.904 522.938 112.22 523.06 112.431C523.187 112.637 523.347 112.776 523.541 112.848C523.739 112.916 523.947 112.949 524.166 112.949C524.331 112.949 524.466 112.941 524.571 112.924C524.676 112.903 524.76 112.886 524.824 112.873L525.127 114.213C525.026 114.251 524.885 114.289 524.704 114.327C524.522 114.369 524.293 114.39 524.015 114.39C523.593 114.39 523.181 114.299 522.776 114.118C522.376 113.937 522.043 113.661 521.778 113.29C521.516 112.92 521.386 112.452 521.386 111.888V102.231ZM530.586 114.264V104.557H532.077V114.264H530.586ZM531.344 102.939C531.053 102.939 530.803 102.84 530.592 102.642C530.385 102.444 530.282 102.206 530.282 101.928C530.282 101.65 530.385 101.412 530.592 101.214C530.803 101.016 531.053 100.917 531.344 100.917C531.635 100.917 531.883 101.016 532.09 101.214C532.3 101.412 532.406 101.65 532.406 101.928C532.406 102.206 532.3 102.444 532.09 102.642C531.883 102.84 531.635 102.939 531.344 102.939ZM542.144 114.466C541.234 114.466 540.45 114.251 539.793 113.821C539.136 113.392 538.63 112.8 538.276 112.046C537.923 111.291 537.746 110.43 537.746 109.461C537.746 108.475 537.927 107.605 538.289 106.851C538.656 106.093 539.165 105.501 539.818 105.075C540.476 104.645 541.242 104.431 542.119 104.431C542.801 104.431 543.416 104.557 543.964 104.81C544.512 105.062 544.96 105.416 545.31 105.871C545.66 106.326 545.877 106.857 545.961 107.464H544.47C544.356 107.022 544.103 106.63 543.711 106.288C543.324 105.943 542.801 105.77 542.144 105.77C541.563 105.77 541.053 105.922 540.615 106.225C540.181 106.524 539.842 106.948 539.597 107.495C539.357 108.039 539.237 108.677 539.237 109.41C539.237 110.16 539.355 110.813 539.591 111.369C539.831 111.925 540.168 112.357 540.602 112.665C541.04 112.972 541.554 113.126 542.144 113.126C542.532 113.126 542.883 113.059 543.199 112.924C543.515 112.789 543.783 112.595 544.002 112.343C544.221 112.09 544.377 111.786 544.47 111.433H545.961C545.877 112.005 545.668 112.522 545.335 112.981C545.007 113.436 544.571 113.798 544.027 114.068C543.488 114.333 542.86 114.466 542.144 114.466Z" fill="white"/>
</g>
<path d="M40.1449 40.1504C36.0377 40.1504 32.6958 43.5249 32.6958 47.6724C32.6958 51.8198 36.0377 55.1944 40.1449 55.1944C44.2522 55.1944 47.5941 51.8198 47.5941 47.6724C47.5941 43.5249 44.2522 40.1504 40.1449 40.1504ZM40.1449 51.0288C38.3123 51.0288 36.821 49.5229 36.821 47.6724C36.821 45.8218 38.3123 44.316 40.1449 44.316C41.9776 44.316 43.4688 45.8218 43.4688 47.6724C43.4688 49.5229 41.9776 51.0288 40.1449 51.0288Z" fill="white"/>
<path d="M66.3999 48.7664C65.1116 47.3966 63.7659 46.0432 62.4094 44.7333C63.5557 44.5718 64.6912 44.189 65.7531 43.5703C70.1873 40.985 71.7109 35.241 69.1506 30.7634C67.9109 28.5953 65.9094 27.0441 63.5126 26.3946C61.1176 25.7469 58.6148 26.0789 56.4677 27.3308C55.4202 27.9404 54.5201 28.735 53.7978 29.6675C53.354 27.8279 52.8653 25.9773 52.3371 24.1667C48.7221 11.8097 44.7352 5.80078 40.1446 5.80078C35.5541 5.80078 31.5672 11.8097 27.954 24.1685C27.424 25.9809 26.9353 27.8351 26.4915 29.6766C25.78 28.755 24.8852 27.9512 23.8234 27.3326C19.3891 24.7491 13.7007 26.2876 11.1404 30.7634C9.90071 32.9314 9.57191 35.4587 10.2133 37.8771C10.8548 40.2956 12.3909 42.3167 14.5398 43.5703C15.5855 44.1799 16.7174 44.5718 17.8781 44.7369C16.5234 46.045 15.1794 47.3966 13.8912 48.7646C5.09632 58.1063 1.93771 64.5978 4.23211 68.6109C5.54011 70.8969 8.42023 72.0381 12.9533 72.0381C16.376 72.0381 20.742 71.3868 26.0818 70.0877C27.9019 69.6451 29.7363 69.1443 31.5366 68.6127C31.1018 69.6959 30.8611 70.8788 30.8611 72.1179C30.8611 77.2868 35.0258 81.4923 40.1446 81.4923C45.2635 81.4923 49.4282 77.2868 49.4282 72.1179C49.4282 70.8788 49.1875 69.6959 48.7527 68.6127C50.5547 69.1443 52.3892 69.6451 54.2075 70.0877C59.5473 71.3868 63.9115 72.0381 67.3342 72.0381C71.8655 72.0381 74.7474 70.8969 76.0554 68.6109C78.3534 64.5978 75.193 58.1063 66.3999 48.7664ZM52.5185 47.93C52.5185 47.9464 52.5185 47.9645 52.5168 47.9808C52.4646 49.962 51.949 51.9087 51.0129 53.6504C51.0039 53.6686 50.9931 53.6867 50.9842 53.7049C50.95 53.7665 50.9141 53.8282 50.8782 53.8899C50.8296 53.977 50.7811 54.0641 50.729 54.1494C50.7236 54.1602 50.7164 54.1693 50.7111 54.1802C49.6869 55.8711 48.2747 57.2971 46.602 58.3349C46.5768 58.3512 46.5517 58.3657 46.5247 58.3821C46.3882 58.4655 46.248 58.5453 46.1079 58.6234C46.0648 58.6469 46.0217 58.6723 45.9785 58.6959C45.8492 58.7667 45.718 58.8338 45.5869 58.8991C45.5366 58.9245 45.4844 58.9499 45.4341 58.9735C45.3012 59.037 45.1664 59.0987 45.0317 59.1586C44.985 59.1785 44.94 59.1985 44.8933 59.2184C44.746 59.2801 44.5987 59.34 44.4478 59.3962H44.4459C44.3471 59.4325 44.2447 59.467 44.1441 59.5015C44.0633 59.5287 43.9824 59.5577 43.9016 59.5849C43.7542 59.6321 43.6051 59.6756 43.456 59.7174C43.4128 59.7301 43.3697 59.7428 43.3248 59.7555C43.1739 59.7954 43.023 59.8317 42.872 59.8661C42.8199 59.8788 42.7678 59.8915 42.7157 59.9024C42.5989 59.9278 42.4804 59.9478 42.3618 59.9714C42.2665 59.9895 42.1731 60.0076 42.0779 60.0222C42.0096 60.033 41.9413 60.0421 41.8731 60.0512C41.7221 60.073 41.5712 60.0929 41.4203 60.1092C41.4059 60.1111 41.3898 60.1111 41.3754 60.1129C40.9711 60.1528 40.5597 60.1746 40.1446 60.1746C39.726 60.1746 39.3128 60.1528 38.9067 60.1111C38.8941 60.1092 38.8834 60.1092 38.8708 60.1074C38.7145 60.0911 38.5617 60.0693 38.4072 60.0476C38.3425 60.0385 38.2779 60.0312 38.2114 60.0203C38.1144 60.004 38.0173 59.9859 37.9203 59.9677C37.8035 59.946 37.6885 59.926 37.5718 59.9006C37.5179 59.8897 37.4658 59.8752 37.4136 59.8643C37.2627 59.8298 37.1118 59.7936 36.9609 59.7536C36.9196 59.7428 36.8764 59.7301 36.8351 59.7174C36.6842 59.6756 36.5333 59.6321 36.3859 59.5831C36.3051 59.5577 36.2278 59.5287 36.147 59.5015C36.0446 59.467 35.9421 59.4307 35.8397 59.3944C35.6906 59.3382 35.5415 59.2783 35.3942 59.2166C35.3492 59.1967 35.3025 59.1785 35.2576 59.1586C35.1211 59.0987 34.9863 59.037 34.8515 58.9735C34.8012 58.9499 34.7509 58.9245 34.7024 58.9009C34.5695 58.8356 34.4365 58.7667 34.3053 58.6959C34.264 58.6741 34.2209 58.6506 34.1796 58.627C34.0358 58.5472 33.8921 58.4637 33.7502 58.3784C33.7322 58.3675 33.716 58.3567 33.6981 58.3458C32.0181 57.308 30.6005 55.8765 29.571 54.1784C29.5603 54.1621 29.5513 54.1457 29.5405 54.1276C29.4542 53.9843 29.3734 53.8391 29.2925 53.6922C29.2692 53.6504 29.2476 53.6087 29.2243 53.567C29.1542 53.4345 29.0859 53.3003 29.0194 53.1642C28.9961 53.1152 28.9709 53.0644 28.9476 53.0154C28.8829 52.8794 28.8218 52.7415 28.7625 52.6036C28.7428 52.5582 28.7248 52.5129 28.705 52.4693C28.6439 52.3206 28.5846 52.17 28.5289 52.0176C28.4912 51.916 28.4571 51.8108 28.4229 51.7073C28.396 51.6275 28.3672 51.5477 28.3421 51.466C28.2954 51.3155 28.2505 51.1631 28.2091 51.0107C28.1984 50.9689 28.1858 50.9272 28.1732 50.8855C28.1337 50.7331 28.0977 50.5807 28.0636 50.4265C28.051 50.3739 28.0384 50.3212 28.0277 50.2686C28.0025 50.1507 27.9827 50.0346 27.9612 49.9167C27.9432 49.8187 27.9253 49.7225 27.9091 49.6246C27.8983 49.5592 27.8911 49.4939 27.8821 49.4268C27.8606 49.2708 27.839 49.1166 27.8228 48.9587C27.821 48.946 27.821 48.9351 27.8192 48.9224C27.7779 48.5106 27.7564 48.0933 27.7564 47.6724C27.7564 47.2497 27.7779 46.8324 27.8192 46.4224C27.821 46.4097 27.821 46.3988 27.8228 46.3861C27.839 46.2282 27.8606 46.074 27.8821 45.918C27.8911 45.8527 27.8983 45.7874 27.9091 45.7202C27.9253 45.6223 27.9432 45.5243 27.9612 45.4281C27.9827 45.3102 28.0025 45.1941 28.0277 45.0762C28.0384 45.0236 28.0528 44.9709 28.0636 44.9183C28.0977 44.7659 28.1337 44.6135 28.1732 44.4611C28.184 44.4194 28.1966 44.3777 28.2091 44.3359C28.2505 44.1835 28.2954 44.0312 28.3421 43.8806C28.3672 43.7989 28.396 43.7191 28.4229 43.6393C28.4571 43.5359 28.4912 43.4324 28.5289 43.3308V43.329C28.5846 43.1784 28.6439 43.0297 28.705 42.8809C28.7248 42.8337 28.7445 42.7866 28.7643 42.7412C28.8218 42.6051 28.8829 42.4691 28.9458 42.3348C28.9709 42.2822 28.9943 42.2314 29.0194 42.1788C29.0841 42.0463 29.1506 41.9139 29.2207 41.7833C29.244 41.7397 29.2674 41.6944 29.2925 41.6508C29.3698 41.5093 29.4489 41.3696 29.5315 41.2317C29.5477 41.2063 29.562 41.1809 29.5782 41.1555C30.6059 39.4646 32.0217 38.0368 33.6981 37.0008C33.7053 36.9954 33.7124 36.9918 33.7196 36.9863C33.7969 36.9392 33.8741 36.8956 33.9532 36.8503C34.0269 36.8067 34.0987 36.7632 34.1742 36.7214C34.185 36.716 34.194 36.7106 34.2047 36.7051C35.9314 35.7563 37.8628 35.2337 39.8284 35.1811C39.8554 35.1811 39.8823 35.1793 39.9093 35.1793C40.0674 35.1757 40.2273 35.1775 40.3872 35.1793C40.4429 35.1811 40.5004 35.1811 40.5561 35.1829C40.6944 35.1866 40.8328 35.1938 40.9711 35.2029C41.0448 35.2083 41.1167 35.2138 41.1885 35.2192C41.3143 35.2301 41.4383 35.2428 41.564 35.2573C41.6467 35.2664 41.7293 35.2773 41.812 35.29C41.927 35.3063 42.0438 35.3226 42.1587 35.3426C42.227 35.3535 42.2935 35.3662 42.3618 35.3789C42.4157 35.3898 42.4696 35.3988 42.5235 35.4097C42.5989 35.4242 42.6744 35.4388 42.7499 35.4551C42.7894 35.4642 42.8271 35.4732 42.8666 35.4823C42.9888 35.5113 43.111 35.5404 43.2332 35.5712C43.2673 35.5803 43.3014 35.5875 43.3356 35.5966C43.3715 35.6057 43.4075 35.6166 43.4416 35.6274C43.5638 35.6619 43.6859 35.6982 43.8081 35.7363C43.8441 35.7472 43.8782 35.7581 43.9141 35.7689C43.9878 35.7925 44.0597 35.8179 44.1333 35.8433C44.189 35.8633 44.2447 35.8814 44.3004 35.9014C44.3615 35.9232 44.4226 35.9449 44.4837 35.9685C44.5951 36.0102 44.7047 36.0556 44.8161 36.101C44.8915 36.1318 44.967 36.1645 45.0407 36.1971C45.1574 36.2479 45.2742 36.3023 45.391 36.3568C45.4539 36.3876 45.5186 36.4185 45.5815 36.4493C45.709 36.5128 45.8348 36.5781 45.9588 36.6452C46.0055 36.6706 46.0522 36.696 46.0989 36.7233C46.2409 36.8031 46.381 36.8829 46.5211 36.9682C46.5409 36.9809 46.5607 36.9936 46.5804 37.0045C48.2586 38.0422 49.6726 39.4719 50.7003 41.1664C50.7057 41.1773 50.7129 41.1864 50.7182 41.1973C50.7668 41.2771 50.8117 41.3587 50.8566 41.4404C50.8943 41.5075 50.9339 41.5728 50.9716 41.6418C50.9824 41.6599 50.9913 41.678 51.0003 41.6962C51.9364 43.4379 52.4521 45.3846 52.5042 47.3658C52.5042 47.3821 52.506 47.4003 52.506 47.4166C52.5078 47.5019 52.506 47.5871 52.506 47.6724C52.5185 47.7595 52.5203 47.8448 52.5185 47.93ZM56.1281 34.1034C56.4839 32.7591 57.3391 31.636 58.5321 30.9412C59.3263 30.4785 60.2084 30.2409 61.1032 30.2409C61.5506 30.2409 62.0016 30.3007 62.4471 30.4205C63.7785 30.7797 64.8907 31.6433 65.5788 32.848C66.2669 34.0526 66.4502 35.4569 66.0944 36.8013C65.7387 38.1456 64.8853 39.2687 63.6905 39.9636C62.4974 40.6602 61.1068 40.8435 59.7754 40.4842C58.4441 40.125 57.3319 39.2614 56.6438 38.0567C55.9538 36.8521 55.7706 35.4478 56.1281 34.1034ZM40.1446 9.96635C41.5335 9.96635 44.8286 13.2066 48.3789 25.3478C49.2773 28.4193 50.066 31.6759 50.7111 34.7693C50.2583 34.4445 49.8325 34.1506 49.439 33.8912C49.1443 33.688 48.8425 33.4939 48.5335 33.3106C48.1867 33.1056 47.8309 32.9115 47.4698 32.7319C47.2272 32.6121 46.9829 32.4978 46.735 32.389C46.611 32.3345 46.4852 32.2819 46.3594 32.2311C46.3002 32.2075 46.2391 32.1839 46.1798 32.1604C46.1456 32.1477 46.1115 32.1331 46.0774 32.1204C46.0091 32.095 45.9408 32.0678 45.8725 32.0424C45.7899 32.0116 45.7072 31.9807 45.6246 31.9517C45.6156 31.9481 45.6048 31.9445 45.5958 31.9408C45.5833 31.9372 45.5725 31.9336 45.5599 31.9281C45.5294 31.9172 45.5006 31.9064 45.4701 31.8973C45.4539 31.8918 45.4395 31.8864 45.4234 31.881C45.3227 31.8465 45.2203 31.8138 45.1197 31.7812C45.0892 31.7721 45.0568 31.7612 45.0263 31.7503C44.9382 31.7231 44.8502 31.6959 44.7604 31.6705C44.7155 31.6578 44.6705 31.6433 44.6256 31.6306C44.5484 31.6088 44.4729 31.5889 44.3956 31.5671C44.3382 31.5508 44.2807 31.5362 44.2232 31.5199C44.1585 31.5036 44.0938 31.4873 44.0291 31.4727C43.959 31.4564 43.889 31.4383 43.8171 31.422C43.765 31.4093 43.7129 31.3984 43.6608 31.3875C43.5763 31.3693 43.4919 31.3512 43.4075 31.333C43.3697 31.3258 43.3338 31.3185 43.2961 31.3113C43.2871 31.3095 43.2763 31.3077 43.2673 31.3058C43.235 31.3004 43.2026 31.2931 43.1703 31.2877C43.1128 31.2768 43.0553 31.2659 42.9978 31.255C42.978 31.2514 42.9583 31.2478 42.9403 31.246C42.8595 31.2315 42.7768 31.2188 42.696 31.2042C42.669 31.2006 42.6421 31.1952 42.6169 31.1915C38.9229 30.62 35.1768 31.324 31.8942 33.238C31.251 33.6136 30.4676 34.1325 29.5818 34.7675C30.225 31.6741 31.0156 28.4175 31.9139 25.3459C35.4606 13.2066 38.7576 9.96635 40.1446 9.96635ZM14.1966 36.7995C13.8409 35.4551 14.0223 34.0526 14.7123 32.848C15.6663 31.1788 17.4037 30.2445 19.1879 30.2445C20.0629 30.2445 20.9486 30.4695 21.759 30.9412C22.952 31.636 23.8054 32.7591 24.163 34.1034C24.5187 35.4478 24.3372 36.8503 23.6473 38.0567C22.9592 39.2614 21.8452 40.1232 20.5156 40.4842C19.1843 40.8435 17.7954 40.6602 16.6006 39.9636C15.4076 39.2669 14.5542 38.1438 14.1966 36.7995ZM25.1152 66.0383C12.9264 69.0064 8.50108 67.7419 7.80575 66.5281C7.11222 65.3144 8.24235 60.8114 16.8809 51.6366C19.0657 49.3161 21.4643 46.9975 23.7946 44.8875C23.7425 45.4427 23.703 45.9597 23.6778 46.4333C23.588 47.6688 23.6347 48.9188 23.8234 50.1616C23.8288 50.1924 23.8324 50.2251 23.8377 50.2559C23.8503 50.3339 23.8629 50.412 23.8755 50.49C23.8773 50.499 23.8791 50.5081 23.8791 50.5172C23.8809 50.5281 23.8827 50.5408 23.8845 50.5517C23.8952 50.6133 23.906 50.675 23.9186 50.7367C23.924 50.7657 23.9294 50.7948 23.9348 50.822C23.9384 50.8383 23.942 50.8564 23.9438 50.8728C23.9491 50.9036 23.9545 50.9345 23.9617 50.9653C23.9797 51.0578 23.9995 51.1485 24.0192 51.2411C24.0282 51.2864 24.039 51.3318 24.048 51.3771C24.0659 51.4552 24.0839 51.5332 24.1037 51.6112C24.118 51.6692 24.1306 51.7273 24.1468 51.7872C24.163 51.8525 24.1809 51.9178 24.1989 51.9831C24.2169 52.0539 24.2366 52.1246 24.2564 52.1936C24.2708 52.2462 24.2869 52.2988 24.3013 52.3514C24.3247 52.433 24.3498 52.5165 24.375 52.5982C24.3875 52.6362 24.4001 52.6762 24.4109 52.7143C24.4414 52.8086 24.4702 52.9048 24.5025 52.9991C24.5097 53.0227 24.5187 53.0463 24.5277 53.0699C24.5349 53.0916 24.5439 53.1152 24.551 53.137C24.56 53.1624 24.569 53.1878 24.578 53.2132C24.5996 53.2749 24.6211 53.3347 24.6427 53.3964C24.6445 53.4019 24.6463 53.4055 24.6481 53.4109C24.6535 53.4255 24.6588 53.44 24.6642 53.4527C24.6912 53.5252 24.7181 53.5978 24.7451 53.6686C24.7577 53.6994 24.7684 53.7303 24.781 53.7629C26.0351 57.0068 28.2433 59.7464 31.1575 61.6514C31.1629 61.655 31.1665 61.6568 31.1719 61.6604C31.2743 61.7276 31.3767 61.7911 31.4791 61.8564C31.4971 61.8673 31.5133 61.8782 31.5312 61.889C31.6516 61.9634 31.772 62.036 31.8942 62.1068C32.0343 62.1884 32.1888 62.2737 32.3469 62.3608C32.3649 62.3716 32.3847 62.3807 32.4026 62.3916C32.9578 62.6928 33.6154 63.0193 34.361 63.3659C31.3857 64.3492 28.1966 65.2872 25.1152 66.0383ZM40.1446 77.3285C37.3005 77.3285 34.9863 74.9917 34.9863 72.1197C34.9863 69.2477 37.3005 66.9109 40.1446 66.9109C42.9888 66.9109 45.303 69.2477 45.303 72.1197C45.303 74.9917 42.9888 77.3285 40.1446 77.3285ZM72.4835 66.5281C71.79 67.7419 67.3629 69.0046 55.1741 66.0383C52.0909 65.2872 48.9036 64.351 45.9282 63.3677C46.4816 63.1119 46.9865 62.8651 47.4357 62.6329C50.3499 61.1905 52.7773 58.9118 54.4374 56.009C54.9189 55.169 55.316 54.3018 55.6376 53.42C55.6412 53.4109 55.643 53.4037 55.6466 53.3946C55.6843 53.2894 55.7221 53.1842 55.758 53.0789C55.767 53.0517 55.776 53.0245 55.7868 52.9973C55.8173 52.9066 55.846 52.8159 55.8748 52.7233C55.8874 52.6816 55.9017 52.6381 55.9143 52.5963C55.9377 52.5183 55.961 52.4403 55.9844 52.3605C56.0006 52.3042 56.0167 52.248 56.0329 52.1918C56.0509 52.1264 56.0688 52.0593 56.0868 51.9922C56.1048 51.9232 56.1245 51.8543 56.1407 51.7835C56.1551 51.7291 56.1677 51.6747 56.1802 51.6221C56.2 51.5404 56.2198 51.457 56.2395 51.3735C56.2485 51.3336 56.2575 51.2919 56.2665 51.252C56.288 51.1558 56.3078 51.0578 56.3276 50.9617C56.333 50.9363 56.3365 50.9127 56.3419 50.8873C56.3635 50.7748 56.3851 50.6605 56.4048 50.5462C56.4048 50.5408 56.4066 50.5371 56.4066 50.5317C56.5665 49.6028 56.651 48.6485 56.651 47.6742C56.651 46.9231 56.5971 45.9797 56.4964 44.8875C58.8268 46.9975 61.2254 49.3161 63.4102 51.6366C72.0487 60.8114 73.1789 65.3144 72.4835 66.5281Z" fill="white"/>
</g>
<defs>
<filter id="filter0_d_639_529" x="0.0806563" y="5.80078" width="549.309" height="119.163" filterUnits="userSpaceOnUse" color-interpolation-filters="sRGB">
<feFlood flood-opacity="0" result="BackgroundImageFix"/>
<feColorMatrix in="SourceAlpha" type="matrix" values="0 0 0 0 0 0 0 0 0 0 0 0 0 0 0 0 0 0 127 0" result="hardAlpha"/>
<feOffset dy="3.42911"/>
<feGaussianBlur stdDeviation="1.71455"/>
<feComposite in2="hardAlpha" operator="out"/>
<feColorMatrix type="matrix" values="0 0 0 0 0 0 0 0 0 0 0 0 0 0 0 0 0 0 0.25 0"/>
<feBlend mode="normal" in2="BackgroundImageFix" result="effect1_dropShadow_639_529"/>
<feBlend mode="normal" in="SourceGraphic" in2="effect1_dropShadow_639_529" result="shape"/>
</filter>
<filter id="filter1_d_639_529" x="95.9351" y="0.692852" width="469.743" height="143.131" filterUnits="userSpaceOnUse" color-interpolation-filters="sRGB">
<feFlood flood-opacity="0" result="BackgroundImageFix"/>
<feColorMatrix in="SourceAlpha" type="matrix" values="0 0 0 0 0 0 0 0 0 0 0 0 0 0 0 0 0 0 127 0" result="hardAlpha"/>
<feOffset dx="2.57183" dy="8.57277"/>
<feGaussianBlur stdDeviation="8.57277"/>
<feComposite in2="hardAlpha" operator="out"/>
<feColorMatrix type="matrix" values="0 0 0 0 0 0 0 0 0 0 0 0 0 0 0 0 0 0 0.25 0"/>
<feBlend mode="normal" in2="BackgroundImageFix" result="effect1_dropShadow_639_529"/>
<feBlend mode="normal" in="SourceGraphic" in2="effect1_dropShadow_639_529" result="shape"/>
</filter>
</defs>
</svg>
